<?xml version="1.0" standalone="no"?>
<!DOCTYPE svg PUBLIC "-//W3C//DTD SVG 20010904//EN"
 "http://www.w3.org/TR/2001/REC-SVG-20010904/DTD/svg10.dtd">
<svg version="1.0" xmlns="http://www.w3.org/2000/svg"
 width="282.000000pt" height="282.000000pt" viewBox="0 0 282.000000 282.000000"
 preserveAspectRatio="xMidYMid meet">
<metadata>
Created by potrace 1.14, written by Peter Selinger 2001-2017
</metadata>
<g transform="translate(0.000000,282.000000) scale(0.100000,-0.100000)"
fill="#000000" stroke="none">
<path d="M1179 2581 c-70 -22 -157 -80 -186 -123 -14 -21 -27 -64 -34 -113
-11 -71 -17 -86 -55 -133 -40 -50 -42 -54 -32 -89 10 -38 4 -137 -12 -179 -5
-13 -17 -24 -25 -24 -22 0 -87 -34 -107 -56 -9 -11 -24 -45 -33 -77 -19 -65
-55 -114 -88 -119 -12 -2 -22 -10 -22 -18 0 -8 -4 -18 -9 -21 -4 -4 -3 -23 4
-43 15 -47 75 -96 116 -96 25 0 33 -5 37 -22 4 -13 29 -45 56 -72 l50 -49 7
39 c4 21 1 73 -6 116 -7 44 -10 82 -6 85 3 4 6 -1 6 -9 0 -9 11 -41 25 -71 30
-65 35 -168 12 -254 -15 -58 -14 -63 20 -63 13 0 23 -4 23 -10 0 -5 -4 -10
-10 -10 -20 0 -9 -18 14 -24 14 -3 26 -16 30 -29 11 -47 95 -116 159 -131 26
-6 27 -5 21 21 l-7 28 29 -29 c16 -15 45 -36 64 -46 63 -32 136 -98 161 -145
26 -50 35 -55 44 -26 14 45 70 103 144 151 43 28 85 57 91 65 18 22 29 18 23
-6 -5 -19 -3 -20 18 -14 75 23 137 71 159 125 7 18 22 33 37 36 17 5 21 10 14
17 -18 18 -13 27 15 27 23 0 26 3 21 28 -32 171 -31 209 13 302 l21 45 -7 -77
c-7 -86 2 -163 16 -137 5 8 29 37 54 64 25 27 46 54 46 61 0 6 18 14 41 17 57
7 91 42 114 116 6 20 4 23 -9 18 -14 -5 -15 -3 -6 12 8 16 5 21 -19 29 -44 15
-68 48 -87 119 -19 72 -62 118 -121 129 -40 8 -40 7 -56 85 -9 44 -10 79 -4
111 9 45 7 49 -31 100 -35 46 -42 65 -53 138 -11 73 -18 90 -47 122 -44 49
-115 93 -181 112 -81 24 -375 22 -452 -3z m171 -25 c0 -2 -7 -23 -16 -47 -8
-24 -18 -78 -22 -119 l-7 -75 -45 0 -45 0 3 40 c5 71 22 140 42 173 16 26 26
32 55 32 19 0 35 -2 35 -4z m204 -21 c20 -30 46 -137 46 -190 l0 -40 -44 3
-43 4 -6 73 c-4 40 -10 83 -15 96 -5 13 -12 36 -16 52 -6 25 -4 27 28 27 25 0
38 -6 50 -25z m-109 -37 c9 -29 19 -84 22 -122 l6 -69 -39 6 c-21 4 -49 7 -61
7 -21 0 -23 5 -23 46 0 41 24 156 36 176 3 5 14 8 24 8 14 0 23 -13 35 -52z
m-245 -15 c-10 -32 -21 -83 -24 -114 -8 -60 -17 -69 -74 -69 -21 0 -22 3 -16
43 15 97 50 172 87 187 43 17 46 13 27 -47z m445 47 c35 -13 73 -97 82 -180 6
-63 6 -63 -18 -57 -13 4 -34 7 -46 7 -21 0 -23 5 -23 48 0 44 -18 136 -35 175
-8 20 2 21 40 7z m146 -97 c9 -10 21 -49 26 -86 l10 -68 -26 3 c-24 3 -27 8
-33 63 -3 33 -11 73 -17 88 -6 16 -11 30 -11 33 0 8 35 -14 51 -33z m-729 -15
c-6 -18 -13 -54 -17 -80 -6 -43 -24 -66 -44 -53 -4 2 -4 33 1 67 6 49 14 68
34 86 32 28 39 23 26 -20z m386 -144 c34 -7 47 -32 58 -115 l7 -49 -102 0
-101 0 0 28 c1 38 19 114 32 129 11 14 56 17 106 7z m-298 -34 c-6 -11 -16
-45 -23 -77 l-13 -58 -42 -3 -42 -3 0 38 c0 21 11 56 23 78 18 32 30 41 57 46
44 7 53 2 40 -21z m134 -17 c-8 -25 -14 -61 -14 -80 0 -33 -1 -33 -45 -33 -25
0 -48 1 -52 3 -14 4 -6 62 15 110 20 46 22 47 65 47 l45 0 -14 -47z m325 30
c18 -15 50 -103 51 -138 0 -6 -22 -9 -54 -7 l-54 4 -6 50 c-4 28 -10 64 -13
79 -5 27 -3 29 25 29 16 0 39 -8 51 -17z m115 -3 c28 0 54 -44 63 -105 l6 -46
-44 3 -44 3 -17 65 c-22 82 -22 94 -2 86 9 -3 26 -6 38 -6z m-720 -37 c-4 -16
-10 -48 -13 -72 -5 -33 -11 -46 -28 -52 -25 -9 -28 -6 -37 37 -5 22 -2 36 11
51 10 12 26 31 35 42 26 30 42 27 32 -6z m864 -22 c28 -35 30 -42 21 -76 -8
-26 -15 -35 -26 -31 -8 3 -18 6 -22 6 -5 0 -11 24 -14 53 -4 28 -9 62 -13 75
-9 33 16 20 54 -27z m-259 -133 c122 -12 124 -13 142 -43 11 -16 19 -39 19
-51 0 -19 -3 -20 -57 -13 -54 8 -208 -3 -260 -17 -13 -4 -23 -13 -23 -20 0 -8
-9 -14 -20 -14 -11 0 -20 6 -20 14 0 23 -101 40 -229 39 l-113 -1 6 31 c11 52
28 61 144 73 148 16 265 16 411 2z m-120 -237 c42 -33 128 -81 146 -81 6 0 43
20 81 45 38 24 74 45 80 45 11 0 44 -104 44 -140 0 -28 -39 -102 -50 -95 -4 3
-11 -8 -15 -24 -4 -21 -19 -37 -49 -55 -23 -14 -48 -32 -56 -40 -19 -24 -27
-20 -34 18 -7 36 -52 83 -106 111 -25 13 -29 19 -20 35 15 28 12 56 -7 71 -15
13 -16 11 -10 -10 7 -29 -8 -61 -28 -61 -18 0 -20 17 -2 23 6 2 9 7 6 11 -4 4
-18 1 -33 -5 -20 -10 -32 -10 -53 0 -18 8 -29 9 -37 1 -7 -7 -5 -10 7 -10 9 0
17 -4 17 -10 0 -15 -26 -12 -39 4 -7 9 -9 25 -5 43 7 25 6 27 -9 14 -19 -15
-23 -61 -7 -77 7 -7 -9 -23 -49 -48 -47 -31 -63 -48 -76 -83 l-17 -43 -28 22
c-15 13 -41 30 -58 39 -19 11 -32 28 -37 48 -4 17 -11 29 -15 26 -5 -3 -21 16
-34 44 l-25 49 20 73 c11 41 22 75 23 76 1 2 37 -20 79 -47 42 -28 83 -50 90
-50 18 0 107 49 147 81 49 40 109 40 159 0z m-37 -386 c40 -37 56 -61 69 -107
7 -28 6 -29 -19 -26 -24 3 -27 7 -24 35 3 29 0 33 -36 44 -33 9 -45 9 -76 -6
-27 -13 -35 -22 -31 -34 12 -31 10 -36 -17 -39 -32 -4 -34 4 -13 54 13 31 89
113 105 113 3 0 22 -15 42 -34z"/>
<path d="M430 451 c0 -126 -3 -152 -16 -166 -10 -10 -25 -14 -35 -11 -11 3
-27 9 -38 12 -14 4 -21 -2 -30 -26 -13 -39 -8 -48 36 -67 71 -29 152 8 170 78
4 19 7 100 5 182 l-3 147 -45 0 -44 0 0 -149z"/>
<path d="M725 528 c-15 -40 -49 -125 -75 -188 -71 -172 -70 -160 -12 -160 50
0 50 0 64 43 l13 42 85 0 85 0 15 -43 c14 -42 15 -42 63 -42 58 0 60 -17 -25
190 -105 254 -90 230 -141 230 l-44 0 -28 -72z m99 -115 c22 -63 22 -63 -24
-63 -25 0 -40 5 -40 12 0 20 32 98 40 98 5 0 15 -21 24 -47z"/>
<path d="M1040 595 c0 -3 31 -51 69 -108 l69 -102 6 -100 c3 -55 6 -101 6
-102 0 -2 20 -3 45 -3 l45 0 0 98 0 98 70 103 c39 57 70 107 70 112 0 5 -22 9
-50 9 l-50 0 -37 -60 c-21 -32 -42 -59 -48 -59 -5 0 -29 26 -52 59 -43 60 -43
60 -93 60 -27 0 -50 -2 -50 -5z"/>
<path d="M1503 588 c2 -7 42 -102 88 -211 l83 -198 35 3 c34 3 36 6 74 93 70
165 127 306 127 315 0 6 -22 10 -48 10 l-49 0 -48 -130 c-27 -72 -52 -130 -56
-130 -3 0 -28 57 -56 128 l-49 127 -53 3 c-41 2 -52 0 -48 -10z"/>
<path d="M1985 583 c-7 -19 -5 -340 3 -380 4 -22 7 -23 118 -23 102 0 114 2
115 18 0 9 2 27 5 40 4 21 1 22 -71 22 l-75 0 0 45 0 44 68 3 67 3 3 38 3 37
-70 0 -71 0 0 45 0 45 69 0 69 0 4 35 c2 20 2 38 -1 40 -2 3 -55 5 -117 5 -97
0 -113 -2 -119 -17z"/>
<path d="M2286 584 c-8 -20 -8 -368 0 -388 5 -13 25 -16 120 -16 l114 0 0 40
0 40 -70 0 -70 0 0 45 0 44 68 3 67 3 3 38 3 37 -70 0 -71 0 0 45 0 44 68 3
67 3 3 38 3 37 -114 0 c-96 0 -116 -3 -121 -16z"/>
</g>
</svg>
